<svg xmlns="http://www.w3.org/2000/svg" enable-background="new 0 0 64 64" viewBox="0 0 64 64"><path fill="#d99179" d="M34.254 44.775c-.423.003-.826.077-1.217.182l-.029-3.777-3.655.028.064 8.478c.02 2.691 2.219 4.857 4.91 4.837s4.857-2.219 4.837-4.91C39.144 46.92 36.945 44.755 34.254 44.775zM34.309 52.111c-1.346.01-2.445-1.073-2.455-2.418-.01-1.346 1.073-2.445 2.418-2.455s2.445 1.073 2.455 2.418C36.738 51.002 35.655 52.101 34.309 52.111zM23.615 37.841l-2.42 2.899c-.236-.329-.5-.642-.825-.913-2.066-1.725-5.14-1.448-6.865.618-1.725 2.066-1.448 5.14.618 6.865 2.066 1.725 5.14 1.448 6.865-.618l5.433-6.509L23.615 37.841zM19.101 45.15c-.862 1.033-2.399 1.172-3.432.309-1.033-.862-1.172-2.399-.309-3.432.862-1.033 2.399-1.172 3.432-.309C19.825 42.58 19.964 44.117 19.101 45.15z"/><polygon fill="#f0f1f2" points="44.385 18.181 51.478 24.172 53.006 25.463 53.243 28.281 50.424 28.518 50.662 31.337 47.843 31.574 48.08 34.393 45.262 34.63 45.499 37.448 42.443 34.867 35.931 29.365"/><path fill="#c0c6cb" d="M46.937,29.999c-0.114,0-0.229-0.039-0.322-0.118L43.559,27.3c-0.102-0.085-0.165-0.208-0.176-0.34    c-0.012-0.132,0.03-0.264,0.116-0.364l1.937-2.292c0.086-0.102,0.208-0.165,0.34-0.176c0.128-0.012,0.264,0.031,0.364,0.116    l3.056,2.582c0.102,0.086,0.165,0.208,0.176,0.34c0.012,0.133-0.03,0.264-0.116,0.365l-0.646,0.764    c-0.178,0.21-0.492,0.236-0.705,0.059c-0.21-0.179-0.237-0.494-0.059-0.705l0.322-0.381l-2.291-1.937l-1.291,1.527l2.673,2.259    c0.211,0.178,0.238,0.493,0.06,0.704C47.22,29.938,47.078,29.999,46.937,29.999z"/><path fill="#c0c6cb" d="M45.001 32.291c-.117 0-.232-.042-.322-.118l-3.056-2.581c-.102-.086-.165-.208-.176-.34-.012-.132.03-.264.116-.365l.646-.764c.178-.209.494-.235.705-.059.21.179.237.494.059.705L42.65 29.15l2.291 1.936 1.291-1.527L43.559 27.3c-.211-.178-.238-.493-.06-.704.179-.212.495-.236.704-.06l3.056 2.581c.211.178.238.493.06.704l-1.936 2.292c-.085.102-.208.165-.34.176C45.029 32.29 45.015 32.291 45.001 32.291zM43.644 24.6c-.114 0-.229-.039-.323-.118-.21-.179-.237-.494-.059-.705l.322-.381-1.934-1.635c-.21-.179-.237-.494-.059-.705.179-.209.493-.235.705-.059l2.315 1.957c.101.086.164.208.175.34.012.133-.03.264-.116.365l-.646.764C43.927 24.539 43.785 24.6 43.644 24.6zM40.417 28.419c-.114 0-.229-.039-.322-.118l-2.071-1.75c-.211-.178-.238-.493-.06-.704s.494-.236.704-.06l1.689 1.428.323-.383c.179-.21.493-.235.705-.059.21.179.237.494.059.705l-.646.764C40.7 28.358 40.559 28.419 40.417 28.419zM41.59 25.482c-.114 0-.229-.039-.322-.118l-1.433-1.21c-.211-.178-.238-.493-.06-.704s.494-.235.704-.06l1.433 1.21c.211.178.238.493.06.704C41.873 25.422 41.731 25.482 41.59 25.482z"/><path fill="#c0c6cb" d="M45.499,37.948c-0.115,0-0.23-0.04-0.322-0.118l-9.568-8.083c-0.203-0.171-0.236-0.472-0.076-0.684   l8.455-11.185c0.082-0.109,0.207-0.18,0.343-0.195c0.137-0.013,0.273,0.026,0.378,0.115l8.62,7.282   c0.102,0.085,0.165,0.208,0.176,0.34l0.237,2.818c0.023,0.275-0.181,0.517-0.456,0.54l-2.32,0.195l0.194,2.32   c0.023,0.275-0.181,0.517-0.456,0.54l-2.32,0.195l0.195,2.32c0.023,0.275-0.181,0.517-0.456,0.54l-2.32,0.195l0.195,2.32   c0.018,0.201-0.089,0.394-0.269,0.486C45.656,37.93,45.577,37.948,45.499,37.948z M36.615,29.289l8.284,6.998l-0.136-1.615   c-0.023-0.275,0.181-0.517,0.456-0.54l2.32-0.195l-0.195-2.32c-0.023-0.275,0.181-0.517,0.456-0.54l2.32-0.195l-0.194-2.32   c-0.023-0.275,0.181-0.517,0.456-0.54l2.32-0.195l-0.178-2.114l-8.06-6.808L36.615,29.289z"/><path fill="#9da7ae" d="M28.953,39.15c-1.006-0.575-2.307-0.37-3.076,0.551l-1.865-1.557l3.04-3.642l1.355-1.623l4.102-4.914   l3.999-4.791l7.873-9.299c1.067,0.89,1.298,2.438,0.537,3.601L32.509,33.891"/><path fill="#c96a47" d="M17.226,46.525c-0.687,0-1.344-0.238-1.877-0.683c-0.603-0.503-0.973-1.21-1.043-1.991   s0.167-1.543,0.67-2.146c1.038-1.243,2.896-1.41,4.137-0.372c0.603,0.503,0.973,1.21,1.043,1.99c0.07,0.781-0.167,1.543-0.67,2.146   s-1.21,0.973-1.991,1.043C17.404,46.521,17.314,46.525,17.226,46.525z M17.231,41.652c-0.555,0-1.105,0.236-1.488,0.694   c-0.331,0.397-0.488,0.899-0.441,1.415c0.046,0.516,0.29,0.981,0.688,1.313c0.398,0.332,0.905,0.491,1.415,0.441   c0.516-0.046,0.981-0.29,1.313-0.688c0.684-0.819,0.573-2.043-0.246-2.728C18.11,41.8,17.67,41.652,17.231,41.652z"/><path fill="#707f8a" d="M32.51 34.391c-.105 0-.211-.033-.302-.102-.22-.166-.264-.479-.097-.7l12.409-16.415c.511-.784.451-1.816-.113-2.556L32.893 28.284c-.177.213-.491.24-.704.063-.212-.177-.24-.492-.063-.704l4-4.791L44 13.551c.178-.209.491-.235.702-.061 1.261 1.053 1.534 2.884.636 4.259l-12.43 16.443C32.811 34.322 32.661 34.391 32.51 34.391zM25.878 40.2c-.113 0-.227-.038-.32-.116l-1.866-1.557c-.102-.085-.166-.207-.178-.339s.029-.264.114-.365l4.396-5.266c.178-.212.493-.239.704-.063.212.177.24.492.063.704l-4.075 4.882 1.131.943c.928-.788 2.267-.931 3.354-.307.24.137.323.442.186.682s-.445.32-.682.186c-.816-.466-1.843-.281-2.443.437C26.163 40.139 26.021 40.2 25.878 40.2z"/><path fill="#c96a47" d="M17.242,48.94c-1.215,0-2.436-0.409-3.438-1.246c-2.274-1.899-2.581-5.295-0.683-7.569   c1.899-2.275,5.296-2.578,7.569-0.682c0.18,0.149,0.349,0.315,0.515,0.504l2.026-2.427c0.085-0.102,0.207-0.166,0.339-0.178   c0.134-0.007,0.265,0.029,0.365,0.114l2.806,2.343c0.212,0.177,0.24,0.492,0.063,0.704l-5.433,6.508   C20.311,48.283,18.781,48.94,17.242,48.94z M17.25,39.197c-1.253,0-2.497,0.534-3.361,1.568c-1.545,1.852-1.296,4.615,0.556,6.161   c0.897,0.748,2.024,1.104,3.195,0.998c1.163-0.105,2.216-0.657,2.965-1.554l5.112-6.124l-2.038-1.702l-2.1,2.516   c-0.099,0.119-0.213,0.181-0.402,0.18c-0.154-0.006-0.298-0.083-0.388-0.208c-0.249-0.347-0.483-0.608-0.739-0.821   C19.233,39.529,18.239,39.197,17.25,39.197z"/><path fill="#9da7ae" d="M28.73,27.48l-0.677,11.322c1.142,0.194,2.017,1.179,2.027,2.378l2.43-0.018L32.362,9.478h0   c-1.389,0.011-2.551,1.06-2.702,2.441l-0.093,1.563"/><path fill="#707f8a" d="M30.079,41.681c-0.131,0-0.257-0.052-0.351-0.144c-0.095-0.094-0.148-0.22-0.149-0.353   c-0.007-0.938-0.684-1.732-1.61-1.89c-0.251-0.043-0.431-0.269-0.415-0.523l1.607-26.884c0.181-1.657,1.555-2.897,3.196-2.91   c0.001,0,0.003,0,0.004,0c0.132,0,0.258,0.052,0.352,0.145c0.095,0.093,0.147,0.221,0.148,0.354l0.147,31.685   c0.001,0.275-0.221,0.5-0.496,0.502l-2.43,0.019C30.082,41.681,30.08,41.681,30.079,41.681z M28.576,38.419   c1.018,0.339,1.768,1.207,1.957,2.258l1.474-0.011l-0.143-30.628c-0.903,0.215-1.603,0.977-1.707,1.935L28.576,38.419z"/><path fill="#c96a47" d="M34.292,52.611c-1.609,0-2.926-1.303-2.938-2.915l0,0c-0.012-1.619,1.296-2.946,2.915-2.959   c0.007,0,0.015,0,0.021,0c1.609,0,2.925,1.303,2.938,2.915c0.012,1.619-1.296,2.946-2.914,2.959   C34.307,52.611,34.299,52.611,34.292,52.611z M32.354,49.688c0.009,1.063,0.877,1.923,1.938,1.923c0.005,0,0.009,0,0.014,0   c1.067-0.009,1.93-0.884,1.922-1.951c-0.009-1.063-0.876-1.923-1.938-1.923c-0.005,0-0.009,0-0.014,0   C33.208,47.746,32.346,48.621,32.354,49.688L32.354,49.688z"/><path fill="#c96a47" d="M34.289,55.022c-2.943,0-5.35-2.384-5.372-5.333l-0.064-8.478c-0.001-0.133,0.051-0.261,0.144-0.354   c0.094-0.095,0.22-0.148,0.353-0.149l3.655-0.027c0.001,0,0.003,0,0.004,0c0.274,0,0.498,0.222,0.5,0.496l0.023,3.161   c0.249-0.041,0.485-0.061,0.719-0.063c0.015,0,0.028,0,0.042,0c2.943,0,5.35,2.384,5.372,5.333c0.022,2.963-2.37,5.392-5.333,5.414   C34.317,55.022,34.303,55.022,34.289,55.022z M29.856,41.704l0.061,7.978c0.019,2.4,1.977,4.341,4.372,4.341   c0.012,0,0.022,0,0.034,0c2.412-0.019,4.359-1.995,4.341-4.406c-0.019-2.4-1.977-4.341-4.372-4.341c-0.012,0-0.022,0-0.034,0   c-0.333,0.002-0.68,0.055-1.093,0.165c-0.153,0.037-0.31,0.008-0.432-0.086c-0.123-0.094-0.196-0.239-0.197-0.394l-0.024-3.276   L29.856,41.704z"/><circle cx="30.344" cy="36.119" r=".609" fill="#707f8a" transform="rotate(-60.851 30.342 36.117)"/><polygon fill="#f0f1f2" points="32.446 26.481 12.757 26.481 10.757 24.481 12.757 22.481 10.757 20.481 12.757 18.481 10.757 16.481 12.757 14.481 10.757 12.481 32.38 12.481"/><path fill="#c0c6cb" d="M18.726,17.98c-0.276,0-0.5-0.224-0.5-0.5v-0.5h-3v0.5c0,0.276-0.224,0.5-0.5,0.5s-0.5-0.224-0.5-0.5v-1   c0-0.276,0.224-0.5,0.5-0.5h4c0.276,0,0.5,0.224,0.5,0.5v1C19.226,17.757,19.002,17.98,18.726,17.98z"/><path fill="#c0c6cb" d="M16.726 22.98c-.276 0-.5-.224-.5-.5v-6c0-.276.224-.5.5-.5s.5.224.5.5v6C17.226 22.757 17.002 22.98 16.726 22.98zM24.726 17.98c-.276 0-.5-.224-.5-.5v-.5h-3v.5c0 .276-.224.5-.5.5s-.5-.224-.5-.5v-1c0-.276.224-.5.5-.5h4c.276 0 .5.224.5.5v1C25.226 17.757 25.002 17.98 24.726 17.98zM24.726 20.98c-.276 0-.5-.224-.5-.5v-.5h-3v.5c0 .276-.224.5-.5.5s-.5-.224-.5-.5v-1c0-.276.224-.5.5-.5h4c.276 0 .5.224.5.5v1C25.226 20.757 25.002 20.98 24.726 20.98z"/><path fill="#c0c6cb" d="M20.726 22.98c-.276 0-.5-.224-.5-.5v-6c0-.276.224-.5.5-.5s.5.224.5.5v6C21.226 22.757 21.002 22.98 20.726 22.98zM24.726 22.98c-.276 0-.5-.224-.5-.5v-6c0-.276.224-.5.5-.5s.5.224.5.5v6C25.226 22.757 25.002 22.98 24.726 22.98zM26.726 22.98c-.096 0-.192-.027-.277-.084-.229-.153-.292-.464-.139-.693l4-6c.154-.23.466-.29.693-.139.229.153.292.464.139.693l-4 6C27.045 22.902 26.887 22.98 26.726 22.98z"/><path fill="#c0c6cb" d="M30.726,22.98c-0.161,0-0.319-0.078-0.416-0.223l-4-6c-0.153-0.229-0.091-0.54,0.139-0.693   c0.228-0.152,0.538-0.092,0.693,0.139l4,6c0.153,0.229,0.091,0.54-0.139,0.693C30.918,22.953,30.821,22.98,30.726,22.98z"/><path fill="#c0c6cb" d="M32.445,26.98H12.757c-0.133,0-0.26-0.053-0.354-0.146l-2-2c-0.195-0.195-0.195-0.512,0-0.707l1.646-1.646   l-1.646-1.646c-0.195-0.195-0.195-0.512,0-0.707l1.646-1.646l-1.646-1.646c-0.195-0.195-0.195-0.512,0-0.707l1.646-1.646   l-1.646-1.646c-0.143-0.143-0.186-0.358-0.108-0.545s0.26-0.309,0.462-0.309h21.624c0.275,0,0.499,0.223,0.5,0.498l0.064,14   c0.001,0.133-0.052,0.261-0.146,0.354C32.706,26.928,32.578,26.98,32.445,26.98z M12.964,25.98h18.979l-0.061-13H11.964   l1.146,1.146c0.195,0.195,0.195,0.512,0,0.707l-1.646,1.646l1.646,1.646c0.195,0.195,0.195,0.512,0,0.707l-1.646,1.646l1.646,1.646   c0.195,0.195,0.195,0.512,0,0.707l-1.646,1.646L12.964,25.98z"/></svg>