<svg xmlns="http://www.w3.org/2000/svg" data-name="Layer 1" viewBox="0 0 512 512"><path d="M224.18018,418.34961A22.48926,22.48926,0,1,0,208.27051,411.77,22.43,22.43,0,0,0,224.18018,418.34961ZM218.877,390.55713a7.49963,7.49963,0,1,1-2.19677,5.30322A7.45078,7.45078,0,0,1,218.877,390.55713ZM444.5,343H67.5a7.5,7.5,0,0,0,0,15h35V474.5A37.54227,37.54227,0,0,0,140,512H372a37.54227,37.54227,0,0,0,37.5-37.5V358h35a7.5,7.5,0,0,0,0-15ZM140,497a22.52523,22.52523,0,0,1-22.5-22.5V452.54425A52.60645,52.60645,0,0,1,161.95575,497Zm254.5-22.5A22.52523,22.52523,0,0,1,372,497H350.04425A52.60645,52.60645,0,0,1,394.5,452.54425Zm0-37.07336A67.6143,67.6143,0,0,0,334.92664,497H177.07336A67.6143,67.6143,0,0,0,117.5,437.42664V358h277Zm-122.58984,6.16369a22.49967,22.49967,0,1,0,31.81933,0A22.52456,22.52456,0,0,0,271.91016,443.59033ZM295.31982,459.5a7.50026,7.50026,0,1,1-2.19677-5.30322A7.45077,7.45077,0,0,1,295.31982,459.5ZM110,327.5a7.50006,7.50006,0,0,0,7.5-7.5V74.57336A67.6143,67.6143,0,0,0,177.07336,15H334.92664A67.6143,67.6143,0,0,0,394.5,74.57336V320.5a7.5,7.5,0,0,0,15,0V37.5A37.54227,37.54227,0,0,0,372,0H140a37.54227,37.54227,0,0,0-37.5,37.5V320A7.50006,7.50006,0,0,0,110,327.5ZM372,15a22.52523,22.52523,0,0,1,22.5,22.5V59.45575A52.60645,52.60645,0,0,1,350.04425,15ZM117.5,37.5A22.52523,22.52523,0,0,1,140,15h21.95575A52.60645,52.60645,0,0,1,117.5,59.45575ZM285.30908,204.56689a7.50006,7.50006,0,0,0-7.5-7.5H234.19092a7.5,7.5,0,0,0,0,15h7.93066a16.29781,16.29781,0,0,1,14.44751,8.792H234.19092a7.5,7.5,0,0,0,0,15h22.37817a16.2978,16.2978,0,0,1-14.44751,8.792h-7.93066a7.50029,7.50029,0,0,0-5.42383,12.68017l31.72217,33.2129a7.50014,7.50014,0,1,0,10.84765-10.36036l-20.728-21.70214A31.40415,31.40415,0,0,0,272.494,235.85889h5.31512a7.5,7.5,0,0,0,0-15h-5.31085a31.11347,31.11347,0,0,0-3.67194-8.792h8.98279A7.50006,7.50006,0,0,0,285.30908,204.56689ZM256,154.75A86.25,86.25,0,1,0,342.25,241,86.34745,86.34745,0,0,0,256,154.75Zm0,157.5A71.25,71.25,0,1,1,327.25,241,71.33042,71.33042,0,0,1,256,312.25ZM211.09863,472.58154a7.49962,7.49962,0,0,0,10.60645,0l79.19629-79.19629a7.49989,7.49989,0,0,0-10.60645-10.60644L211.09863,461.9751A7.49932,7.49932,0,0,0,211.09863,472.58154Z"/></svg>